<?xml version="1.0" encoding="UTF-8" standalone="no"?>
<svg width="18px" height="18px" viewBox="0 0 18 18" version="1.1" xmlns="http://www.w3.org/2000/svg" xmlns:xlink="http://www.w3.org/1999/xlink">
    <!-- Generator: Sketch 46.2 (44496) - http://www.bohemiancoding.com/sketch -->
    <title>icon-toggle-off</title>
    <desc>Created with Sketch.</desc>
    <defs></defs>
    <g id="Page-1" stroke="none" stroke-width="1" fill="none" fill-rule="evenodd" stroke-linecap="round" stroke-linejoin="round">
        <g id="icon-toggle-off" transform="translate(1.000000, 1.000000)" stroke="#9A9A9A" stroke-width="1.5">
            <path d="M12.3199996,12.3199996 C11.0440943,13.2925614 9.6040948,13.7919552 8.00000013,13.8181809 C2.90909069,13.8181809 -4.36363636e-08,7.99999948 -4.36363636e-08,7.99999948 C0.915113,6.2946031 2.14177946,4.85460421 3.67999969,3.68000142 M6.47272656,2.35636328 C6.97502987,2.23878669 7.4841206,2.18060476 7.99999948,2.18181713 C13.0909083,2.18181801 15.999999,7.99999948 15.999999,7.99999948 C15.5573235,8.82815281 15.0336876,9.60148622 14.4290901,10.3199997 M9.54181815,9.54181815 C8.95366327,10.173018 8.24162441,10.3818782 7.40570293,10.1683995 C6.56978007,9.9549214 6.0450796,9.43022157 5.83160084,8.59429871 C5.61812137,7.75837585 5.82698228,7.04633699 6.45818286,6.45818216" id="Stroke-2"></path>
            <path d="M-4.36363636e-08,-4.36363647e-08 L15.999999,15.999999" id="Stroke-3"></path>
        </g>
    </g>
</svg>