<?xml version="1.0" encoding="UTF-8" standalone="no"?>
<svg width="20px" height="20px" viewBox="0 0 20 20" version="1.1" xmlns="http://www.w3.org/2000/svg" xmlns:xlink="http://www.w3.org/1999/xlink">
    <!-- Generator: Sketch 46.2 (44496) - http://www.bohemiancoding.com/sketch -->
    <title>icon_bot2</title>
    <desc>Created with Sketch.</desc>
    <defs></defs>
    <g id="Page-1" stroke="none" stroke-width="1" fill="none" fill-rule="evenodd">
        <g id="icon_bot2" fill-rule="nonzero" fill="#FFFFFF">
            <path d="M19.4319149,0.0212765957 L18.6191489,0.0212765957 C14.4877305,0.0331717988 10.6662927,2.21454219 8.55531915,5.76595745 C8.41489362,6.00425532 8.2893617,6.23617021 8.17234043,6.47021277 L4.09574468,6.17021277 C3.97243229,6.16117316 3.85128563,6.20621487 3.76382979,6.29361702 L0.265957447,9.78723404 C0.138919636,9.90615819 0.0970921948,10.0904488 0.160344475,10.2525621 C0.223596756,10.4146753 0.379181673,10.5219409 0.553191489,10.5234043 L5.27446809,10.6744681 L5.75531915,11.1553191 C3.94695609,11.9407221 2.77692208,13.7241883 2.77659574,15.6957447 L2.77659574,16.1382979 C2.77659574,16.3733127 2.96711287,16.5638298 3.20212766,16.5638298 L3.64468085,16.5638298 C5.61413986,16.5582375 7.39435643,15.3897878 8.18297872,13.5851064 L9.03404255,14.4361702 L9.17234043,19.1489362 C9.17722688,19.3185647 9.28243193,19.469074 9.44005708,19.5319392 C9.59768223,19.5948043 9.77759063,19.558006 9.89787234,19.4382979 L13.3787234,15.9468085 C13.4655442,15.8598529 13.5105377,15.7396116 13.5021277,15.6170213 L13.2404255,11.787234 C13.5893617,11.6191489 13.9361702,11.4297872 14.2744681,11.2234043 C17.7526552,9.11072231 19.8708517,5.33122677 19.8574468,1.26170213 L19.8574468,0.446808511 C19.8574468,0.33395043 19.8126141,0.225714722 19.7328114,0.145912008 C19.6530087,0.0661092938 19.544773,0.0212765957 19.4319149,0.0212765957 Z M3.65319149,15.7148936 L3.63617021,15.7148936 L3.63617021,15.6978723 C3.63452526,13.941301 4.75203376,12.3788427 6.41489362,11.812766 L7.53617021,12.9340426 C6.96778689,14.5945578 5.40828647,15.7114165 3.65319149,15.7148936 Z M19.006383,1.26170213 C19.0189954,5.03494299 17.0549155,8.5392878 13.8297872,10.4978723 C13.4406798,10.735675 13.0370519,10.9488587 12.6212766,11.1361702 C12.4553802,11.2099313 12.3545539,11.3808234 12.3702128,11.5617021 L12.6382979,15.487234 L10,18.1297872 L9.88723404,14.2404255 C9.88457022,14.1317497 9.84041535,14.0282142 9.76382979,13.9510638 L5.75744681,9.95319149 C5.68082739,9.87710291 5.57814683,9.83298829 5.47021277,9.82978723 L1.56170213,9.70425532 L4.22765957,7.03829787 L8.4,7.33829787 C8.57933174,7.35501079 8.74976276,7.25701295 8.82553191,7.09361702 C8.96382979,6.79574468 9.11914894,6.50212766 9.29787234,6.19787234 C11.2567076,2.90821491 14.7989806,0.888675027 18.6276596,0.878723404 L19.0148936,0.878723404 L19.006383,1.26170213 Z" id="Shape"></path>
            <path d="M13.8297872,4.04255319 C12.9372196,4.05374196 12.1618888,4.65931399 11.934848,5.5225953 C11.7078071,6.38587662 12.0848996,7.29453309 12.8564769,7.74338787 C13.6280542,8.19224264 14.604338,8.07089463 15.2425532,7.44680851 L15.2425532,7.44680851 C15.8227432,6.87946301 15.9992019,6.01610781 15.6881585,5.26660571 C15.3771151,4.51710362 14.6412045,4.03238168 13.8297872,4.04255319 Z M14.6319149,6.82978723 C14.2494772,7.21245238 13.649988,7.27168622 13.2000565,6.97126511 C12.750125,6.670844 12.575057,6.09443511 12.7819129,5.5945333 C12.9887688,5.0946315 13.5199394,4.81045923 14.0505945,4.91579812 C14.5812497,5.02113701 14.9636023,5.48665021 14.9638298,6.02765957 C14.9682507,6.33015216 14.851851,6.62191724 14.6404255,6.83829787 L14.6319149,6.82978723 Z" id="Shape"></path>
        </g>
    </g>
</svg>