<?xml version="1.0" encoding="UTF-8" standalone="no"?>
<svg width="21px" height="21px" viewBox="0 0 21 21" version="1.1" xmlns="http://www.w3.org/2000/svg" xmlns:xlink="http://www.w3.org/1999/xlink">
    <!-- Generator: Sketch 46.2 (44496) - http://www.bohemiancoding.com/sketch -->
    <title>icon-toggle</title>
    <desc>Created with Sketch.</desc>
    <defs></defs>
    <g id="Page-1" stroke="none" stroke-width="1" fill="none" fill-rule="evenodd" stroke-linecap="round" stroke-linejoin="round">
        <g transform="translate(1.000000, 1.000000)" id="icon-toggle" stroke-width="2" stroke="#9A9A9A">
            <g>
                <path d="M14.6299995,14.6299995 C13.114862,15.7849167 11.4048626,16.3779468 9.50000016,16.4090899 C3.4545452,16.4090899 -5.18181818e-08,9.49999938 -5.18181818e-08,9.49999938 C1.08669669,7.47484118 2.54336311,5.7648425 4.36999963,4.37000169 M7.68636279,2.7981814 C8.28284796,2.65855919 8.88739321,2.58946815 9.49999938,2.59090785 C15.5454536,2.59090888 18.9999988,9.49999938 18.9999988,9.49999938 C18.4743216,10.4834315 17.8525041,11.4017649 17.1345445,12.2549996 M11.3309091,11.3309091 C10.6324751,12.0804589 9.78692898,12.3284804 8.79427223,12.0749744 C7.80161383,11.8214692 7.17853203,11.1983881 6.92502599,10.2057297 C6.67151913,9.21307133 6.91954145,8.36752517 7.66909214,7.66909131" id="Stroke-2"></path>
                <path d="M-5.18181818e-08,-5.1818183e-08 L18.9999988,18.9999988" id="Stroke-3"></path>
            </g>
        </g>
    </g>
</svg>