<?xml version="1.0" encoding="UTF-8" standalone="no"?>
<svg width="20px" height="21px" viewBox="0 0 20 21" version="1.1" xmlns="http://www.w3.org/2000/svg" xmlns:xlink="http://www.w3.org/1999/xlink">
    <!-- Generator: Sketch 46.2 (44496) - http://www.bohemiancoding.com/sketch -->
    <title>icon-bot</title>
    <desc>Created with Sketch.</desc>
    <defs></defs>
    <g id="Page-1" stroke="none" stroke-width="1" fill="none" fill-rule="evenodd">
        <g id="noun_415499_cc" fill-rule="nonzero" fill="#FFFFFF">
            <g id="Group">
                <g id="icon-bot">
                    <path d="M5.84580172,13.3079014 C5.86658262,13.2813129 5.92631077,13.2213168 6.0151541,13.1589029 C6.153328,13.0618334 6.3043167,13.0042063 6.4654727,12.9998144 L6.4383401,12.9998174 C6.60165723,13.0042323 6.75266707,13.0617504 6.88980785,13.1584306 C6.97752725,13.2202703 7.03600975,13.2795289 7.05589835,13.3053213 L7.3612196,13.7012744 L8.153126,13.090632 L7.84780475,12.6946788 C7.77121712,12.5953567 7.64448605,12.4669438 7.46599353,12.3411118 C7.17803658,12.1381107 6.84269637,12.010383 6.465363,12.0001826 L6.43823043,12.0001856 C6.06309315,12.010409 5.72871893,12.1380278 5.44031038,12.3406396 C5.26201195,12.4658973 5.13490667,12.5935728 5.05790138,12.6920986 L4.75,13.0860488 L5.53790035,13.7018516 L5.84580172,13.3079014 Z M12.8458017,13.3079014 C12.8665826,13.2813129 12.9263108,13.2213168 13.0151541,13.1589029 C13.153328,13.0618334 13.3043167,13.0042063 13.4654727,12.9998144 L13.4383401,12.9998174 C13.6016572,13.0042323 13.7526671,13.0617504 13.8898079,13.1584306 C13.9775273,13.2202703 14.0360098,13.2795289 14.0558983,13.3053213 L14.3612196,13.7012744 L15.153126,13.090632 L14.8478048,12.6946788 C14.7712171,12.5953567 14.6444861,12.4669438 14.4659935,12.3411118 C14.1780366,12.1381107 13.8426964,12.010383 13.465363,12.0001826 L13.4382304,12.0001856 C13.0630932,12.010409 12.7287189,12.1380278 12.4403104,12.3406396 C12.2620119,12.4658973 12.1349067,12.5935728 12.0579014,12.6920986 L11.75,13.0860488 L12.5379003,13.7018516 L12.8458017,13.3079014 Z" id="Shape"></path>
                    <path d="M10,3 C15.3584121,3 17.8455661,5.1534435 19.0000006,7.15252295 L19,0.9854369 L19,0.5 L20,0.5 L20,0.9854369 L20,12.5145631 L20,12.7572816 L20,15.5 C20,15.5 20,20.5 10,20.5 C0,20.5 0,15.5 0,15.5 L0,12.7572816 L0,12.5145631 L0,0.9854369 L0,0.5 L1,0.5 L1,0.9854369 L1,7.15252195 C2.15443385,5.1534435 4.64158792,3 10,3 Z M2.5,13 C2.5,15.0715232 4.17950087,16.75 6.2512702,16.75 L13.7487298,16.75 C15.8229715,16.75 17.5,15.0710678 17.5,13 C17.5,10.9284768 15.8204991,9.25 13.7487298,9.25 L6.2512702,9.25 C4.17702848,9.25 2.5,10.9289322 2.5,13 Z M1,0.5 C1,0.223857625 0.776142375,0 0.5,0 C0.223857625,0 0,0.223857625 0,0.5 L1,0.5 Z M20,0.5 C20,0.223857625 19.7761424,0 19.5,0 C19.2238576,0 19,0.223857625 19,0.5 L20,0.5 Z"></path>
                </g>
            </g>
        </g>
    </g>
</svg>