<?xml version="1.0" encoding="UTF-8" standalone="no"?>
<svg width="910px" height="554px" viewBox="0 0 910 554" version="1.1" xmlns="http://www.w3.org/2000/svg" xmlns:xlink="http://www.w3.org/1999/xlink">
    <!-- Generator: Sketch 47 (45396) - http://www.bohemiancoding.com/sketch -->
    <title>Path 2</title>
    <desc>Created with Sketch.</desc>
    <defs>
        <linearGradient x1="80.9512167%" y1="29.2103479%" x2="6.11093522%" y2="100%" id="linearGradient-1">
            <stop stop-color="#75FABF" offset="0%"></stop>
            <stop stop-color="#71609B" offset="100%"></stop>
        </linearGradient>
    </defs>
    <g id="Symbols" stroke="none" stroke-width="1" fill="none" fill-rule="evenodd" stroke-linecap="round" stroke-linejoin="round" stroke-dasharray="1,200">
        <path d="M44.7100103,549.626615 C85.1252904,489.25629 147.471493,445.342856 203.688713,401.348497 C277.922215,343.254994 362.759423,287.240204 447.457382,248.549705 C458.386436,243.557253 436.329068,271.152291 426.254923,277.700603 C364.899257,317.582505 301.245205,354.236881 235.482467,386.335884 C225.958512,390.984557 213.429737,390.510609 203.688713,386.335884 C193.356797,381.907921 181.660954,373.583442 179.843398,362.490569 C172.70237,318.907586 177.82608,274.173406 178.074871,230.009973 C178.08555,228.11419 180.488665,223.031601 180.618371,224.922972 C183.864157,272.253128 172.3184,268.697166 196.515248,316.558531 C203.652258,330.675538 237.245161,363.622965 249.51146,372.207535 C263.943192,382.307583 295.676103,392.30005 313.098967,382.798829 C322.157373,377.859003 340.684491,356.818299 322.815933,344.825165 C305.184182,332.990973 282.580046,330.973776 261.871282,326.275497 C247.718379,323.064572 233.143043,320.993918 218.631777,321.188496 C183.817203,321.655318 148.122605,319.519995 114.417815,328.252671 C89.9194316,334.600031 69.1533528,351.193121 48.1775165,365.352007 C33.6450049,375.161589 19.4321184,386.15034 8.42538916,399.798552 C-2.98991764,413.953395 -12.9930016,430.025902 -18.0627817,447.489182 C-21.2734201,458.548494 -23.5629159,473.792737 -15.4199259,481.935727 C0.5025358,497.858189 23.7565566,505.315056 45.5247252,511.076689 C121.673986,531.231994 227.578125,535.023787 304.306007,533.163412 C322.493297,532.722436 366.74173,527.888451 370.546306,498.716867 C372.181745,486.177139 363.591449,473.212343 354.649429,464.270323 C300.606388,410.227282 234.639094,391.502237 161.224181,384.776003 C146.56441,383.432883 131.46928,381.758582 117.060671,384.776003 C98.6731283,388.626684 44.6822599,425.725427 119.713462,403.325671 C167.362193,389.100657 213.97244,371.450561 260.142497,352.98225 C320.012072,329.034046 379.209057,303.345487 437.670868,276.140722 C495.189542,249.374839 540.790194,222.667067 591.353923,186.055109 C596.410803,182.393546 606.919718,178.606602 604.598009,172.811023 C602.298648,167.071234 591.299551,169.546513 586.048341,172.811023 C557.694138,190.437929 530.776023,210.767754 506.563957,233.755674 C458.589325,279.304742 392.459229,358.08441 362.597867,420.106812 C355.050254,435.783294 345.260162,450.840972 341.405343,467.807378 C340.427386,472.111711 344.976061,478.963693 349.353782,478.398672 C462.206755,463.833035 556.705725,361.398546 580.752694,253.179671 C591.37445,205.378447 583.733216,139.054187 533.062063,115.403427 C516.759297,107.794111 470.038744,95.1251089 448.272097,104.802197 C441.329786,107.888633 438.263436,116.477725 435.028012,123.351866 C425.362769,143.88711 418.834296,161.603016 450.040625,171.042496 C523.630872,193.30252 643.783238,184.962243 717.654609,160.441266 C718.792571,160.063529 721.396999,157.915281 720.198109,157.897766 C661.323023,157.037638 602.326582,161.475402 543.554002,157.897766 C539.921239,157.67663 543.329584,149.535268 546.206793,147.306472 C606.677674,100.463416 669.377862,56.5603784 731.673667,12.1730839 C740.062324,6.19595911 749.601704,1.99018171 758.171774,-3.72379283 C765.522995,-8.62511751 787.756707,-22.4230169 779.374233,-19.6306051 C765.860783,-15.1289372 754.284144,-6.08688772 742.274897,1.57185423 C689.890693,34.9792033 604.154492,86.6567636 548.849649,134.052451 C545.496,136.926494 536.80053,143.013101 540.901211,144.65368 C551.561873,148.918745 564.192623,147.374619 575.347756,144.65368 C616.403818,134.639365 654.933579,116.782467 691.931475,96.9630502 C702.74717,91.1691867 711.550349,79.9366684 723.725229,78.4133821 C730.0433,77.6228831 716.357016,88.8189334 713.133935,94.3102589 C692.50566,129.455682 670.414137,163.843041 652.189283,200.292749 C636.784434,231.102447 623.714077,263.132417 612.447092,295.683945 C605.113594,316.871206 600.339459,338.941974 596.550215,361.039979 C593.252715,380.270246 591.854765,399.830444 591.244632,419.331839 C590.967041,428.204352 586.511718,440.905526 593.897424,445.829946 C622.183129,464.68944 661.174899,425.849968 673.381807,411.383401 C707.127172,371.391324 728.913509,294.524199 718.429582,242.687732 C716.236099,231.842333 710.358169,221.369567 702.532705,213.54677 C699.40817,210.4233 691.444533,209.696071 689.278684,213.54677 C677.029237,235.325266 674.220844,301.390578 676.034599,319.52926 C679.257591,351.761199 681.753995,385.177057 694.584267,414.920456 C702.00479,432.122866 719.538471,443.160366 734.326458,454.662648 C776.228896,487.254887 794.326412,495.240432 845.614531,499.700487 C860.875524,501.027594 877.223918,503.401318 891.536634,497.941895 C918.654266,487.598179 924.714138,433.16289 918.03474,415.794784 C910.413879,395.97864 889.410946,384.223059 872.996901,370.756945 C811.120974,319.993818 752.634944,302.922227 674.266071,296.568209 C647.664692,294.411413 634.909105,292.686516 615.974211,315.107941 C611.167793,320.799377 607.897563,328.930089 608.910037,336.3104 C613.024669,366.303554 640.050281,368.509447 664.549105,373.409736 C682.751927,377.050691 746.580523,382.096894 765.235948,378.705384 C817.958245,369.120601 841.276219,320.961465 818.232161,270.070102 C804.970592,240.782755 781.894036,216.715835 759.940301,193.228574 C743.645299,175.795324 724.684922,160.58848 704.301232,148.1808 C683.696087,135.638318 661.787933,123.389021 638.060934,119.039838 C607.654726,113.466348 576.19682,117.497281 545.32253,119.039838 C540.570855,119.277243 536.286489,122.13471 532.068509,124.335485 C507.851746,136.970832 552.56485,130.04746 562.10367,129.641067 C591.275091,128.398245 620.529036,127.664735 649.536492,124.335485 C674.493198,121.471148 699.116828,116.138003 723.725229,111.091399 C733.591595,109.06804 743.037126,105.295458 752.876126,103.142961 C771.319921,99.1079757 790.034623,96.404779 808.515195,92.5417313 C809.805489,92.2720173 813.348098,91.0148318 812.05225,90.7732038 C681.945363,66.5130444 541.641921,80.2916599 411.957669,77.5291184 C409.457161,77.4758524 404.279432,73.0146677 406.652087,72.2235357 C434.679398,62.8781792 524.52759,66.4624455 533.837036,66.9278887 C615.400092,71.0057866 579.94251,68.3312033 629.228232,85.4775567 C638.644816,88.7535578 664.22408,95.0709825 676.918862,101.374433 C677.992779,101.907675 680.656108,104.030253 679.462363,103.917934 C616.375451,97.9821067 680.161725,97.9300649 594.672396,80.0726186 C566.218118,74.1289441 537.16597,70.4463641 508.113903,69.471389 C484.216792,68.669412 459.21854,67.0781442 436.577957,74.767036 C361.006813,100.431497 284.20479,187.215601 277.599254,268.192284 C275.587105,292.859044 274.646086,318.285541 280.252046,342.390956 C283.751479,357.438387 295.117819,369.56179 304.097361,382.133148 C308.453078,388.231152 313.639541,394.058153 319.994238,398.030024 C328.061442,403.072264 337.300396,411.083206 346.492344,408.631254 C354.543813,406.483525 358.300656,395.637172 359.736429,387.428795 C364.61568,359.533916 365.766888,330.947686 365.032076,302.638828 C362.53964,206.616909 360.970017,182.022102 322.647029,101.265142 C299.855292,53.2367541 288.097409,18.4006187 237.857063,0.578299431 C225.341274,-3.86156605 211.384896,-2.06455633 198.104935,-2.06455633 C189.231705,-2.06455633 179.925108,-2.53708621 171.616764,0.578299431 C165.15448,3.00146681 160.168364,8.56397877 155.709952,13.8323204 C150.328718,20.1911267 145.099512,27.1219328 142.465867,35.0248442 C132.902227,63.7229377 159.299087,62.7287032 184.86085,65.9442694 C217.330607,70.0288335 250.198411,69.8584963 282.894901,71.2399165 C360.922192,74.5365541 437.768889,75.0986817 516.062341,73.8927078 C537.053348,73.569378 554.898719,65.9442694 575.238465,65.9442694" id="Path-2" stroke="url(#linearGradient-1)" stroke-width="7"></path>
    </g>
</svg>