<svg xmlns="http://www.w3.org/2000/svg" data-name="Layer 1" viewBox="0 0 100 125" x="0px" y="0px"><title>02</title><path d="M94.33,4.1H90.51a55.21,55.21,0,0,0-47.3,27c-.66,1.12-1.25,2.21-1.8,3.31L22.25,33a2,2,0,0,0-1.56.58L4.25,50A2,2,0,0,0,5.6,53.46l22.19.71,2.26,2.26a23.27,23.27,0,0,0-14,21.34v2.08a2,2,0,0,0,2,2h2.08a23.35,23.35,0,0,0,21.33-14l4,4L46.11,94a2,2,0,0,0,3.41,1.36L65.88,78.95a2,2,0,0,0,.58-1.55l-1.23-18c1.64-.79,3.27-1.68,4.86-2.65A54.57,54.57,0,0,0,96.33,9.93V6.1A2,2,0,0,0,94.33,4.1ZM20.17,77.86h-.08v-.08A19.27,19.27,0,0,1,33.15,59.52l5.27,5.27A19.33,19.33,0,0,1,20.17,77.86ZM92.33,9.93A50.59,50.59,0,0,1,68,53.34a51.3,51.3,0,0,1-5.68,3,2,2,0,0,0-1.18,2l1.26,18.45L50,89.21l-.53-18.28a2,2,0,0,0-.58-1.36L30.06,50.78a2,2,0,0,0-1.35-.58l-18.37-.59L22.87,37.08l19.61,1.41a2,2,0,0,0,2-1.15c.65-1.4,1.38-2.78,2.22-4.21a51.19,51.19,0,0,1,43.85-25h1.82Z"/><path d="M68,23A9.33,9.33,0,1,0,74.64,39h0A9.33,9.33,0,0,0,68,23Zm3.77,13.1a5.33,5.33,0,1,1,1.56-3.77A5.34,5.34,0,0,1,71.81,36.14Z"/><text x="0" y="115" fill="#000000" font-size="5px" font-weight="bold" font-family="'Helvetica Neue', Helvetica, Arial-Unicode, Arial, Sans-serif">Created by Karan</text><text x="0" y="120" fill="#000000" font-size="5px" font-weight="bold" font-family="'Helvetica Neue', Helvetica, Arial-Unicode, Arial, Sans-serif">from the Noun Project</text></svg>