<?xml version="1.0" encoding="UTF-8" standalone="no"?>
<svg width="101px" height="30px" viewBox="0 0 101 30" version="1.1" xmlns="http://www.w3.org/2000/svg" xmlns:xlink="http://www.w3.org/1999/xlink">
    <!-- Generator: Sketch 47 (45396) - http://www.bohemiancoding.com/sketch -->
    <title>Artboard Copy</title>
    <desc>Created with Sketch.</desc>
    <defs></defs>
    <g id="Page-1" stroke="none" stroke-width="1" fill="none" fill-rule="evenodd">
        <g id="Artboard-Copy">
            <g id="logo">
                <g id="icon">
                    <circle id="Oval-4" fill="#FFFFFF" fill-rule="nonzero" cx="15" cy="15" r="15"></circle>
                    <g id="Group" transform="translate(5.000000, 3.000000)" stroke="#77589C">
                        <path d="M11,2.3662178 L11,4 L10,4 L10,2.3662178 C9.70109931,2.19331309 9.5,1.87014118 9.5,1.5 C9.5,0.94771525 9.94771525,0.5 10.5,0.5 C11.0522847,0.5 11.5,0.94771525 11.5,1.5 C11.5,1.87014118 11.2989007,2.19331309 11,2.3662178 Z M2.5,6.5 L17.5,6.5 C18.6045695,6.5 19.5,7.3954305 19.5,8.5 L19.5,18.5 C19.5,19.6045695 18.6045695,20.5 17.5,20.5 L2.5,20.5 C1.3954305,20.5 0.5,19.6045695 0.5,18.5 L0.5,8.5 L0.5,8.5 C0.5,7.3954305 1.3954305,6.5 2.5,6.5 L2.5,6.5 Z M6.5,4.5 L14.5,4.5 C15.0522847,4.5 15.5,4.94771525 15.5,5.5 L15.5,6.5 L5.5,6.5 L5.5,5.5 C5.5,4.94771525 5.94771525,4.5 6.5,4.5 Z M6,16 L6,18 L14,18 L14,16 L9.90294805,16 L6,16 Z M6,12.5 C6.82842712,12.5 7.5,11.8284271 7.5,11 C7.5,10.1715729 6.82842712,9.5 6,9.5 C5.17157288,9.5 4.5,10.1715729 4.5,11 C4.5,11.8284271 5.17157288,12.5 6,12.5 Z M14,12.5 C14.8284271,12.5 15.5,11.8284271 15.5,11 C15.5,10.1715729 14.8284271,9.5 14,9.5 C13.1715729,9.5 12.5,10.1715729 12.5,11 C12.5,11.8284271 13.1715729,12.5 14,12.5 Z" id="Combined-Shape"></path>
                    </g>
                </g>
                <text id="svift" font-family="DecimaMonoProLt" font-size="20" font-weight="normal" letter-spacing="0.0909091234" fill="#FFFFFF">
                    <tspan x="40.2727272" y="21">svift</tspan>
                </text>
            </g>
        </g>
    </g>
</svg>