<?xml version="1.0" encoding="UTF-8"?>
<svg width="104px" height="36px" viewBox="0 0 104 36" version="1.1" xmlns="http://www.w3.org/2000/svg" xmlns:xlink="http://www.w3.org/1999/xlink">
    <!-- Generator: Sketch 49.3 (51167) - http://www.bohemiancoding.com/sketch -->
    <title>svg with fonts converted to outlines copy</title>
    <desc>Created with Sketch.</desc>
    <defs>
        <circle id="path-1" cx="15" cy="15" r="15"></circle>
        <filter x="-23.3%" y="-16.7%" width="146.7%" height="146.7%" filterUnits="objectBoundingBox" id="filter-2">
            <feOffset dx="0" dy="2" in="SourceAlpha" result="shadowOffsetOuter1"></feOffset>
            <feGaussianBlur stdDeviation="2" in="shadowOffsetOuter1" result="shadowBlurOuter1"></feGaussianBlur>
            <feColorMatrix values="0 0 0 0 0.772321429   0 0 0 0 0.767918002   0 0 0 0 0.767918002  0 0 0 0.5 0" type="matrix" in="shadowBlurOuter1"></feColorMatrix>
        </filter>
        <linearGradient x1="7.93677715%" y1="-12.2993249%" x2="122.824009%" y2="75.5368125%" id="linearGradient-3">
            <stop stop-color="#71609B" offset="0%"></stop>
            <stop stop-color="#75FABF" offset="100%"></stop>
        </linearGradient>
        <linearGradient x1="132.418539%" y1="78.4402366%" x2="59.99532%" y2="42.6162552%" id="linearGradient-4">
            <stop stop-color="#71609B" offset="0%"></stop>
            <stop stop-color="#75FABF" offset="100%"></stop>
        </linearGradient>
    </defs>
    <g id="svg-with-fonts-converted-to-outlines-copy" stroke="none" stroke-width="1" fill="none" fill-rule="evenodd">
        <path d="M46.9738368,21.3166667 C47.026835,21.8092617 47.2686356,22.2402759 47.6992459,22.6097222 C48.1298562,22.9791685 48.6565178,23.1638889 49.2792465,23.1638889 C49.9019752,23.1638889 50.4220121,22.9888906 50.8393728,22.6388889 C51.2567336,22.2888871 51.4654108,21.8481508 51.4654108,21.3166667 C51.4654108,20.8499977 51.2898569,20.4611127 50.9387439,20.15 C50.587631,19.8388873 50.1603395,19.5893528 49.6568567,19.4013889 C49.1533739,19.213425 48.6498987,19.0125011 48.1464159,18.7986111 C47.6429331,18.5847212 47.2156416,18.2800946 46.8645286,17.8847222 C46.5134156,17.4893499 46.3378618,17.0000029 46.3378618,16.4166667 C46.3378618,15.6648111 46.6260351,15.0555579 47.2023904,14.5888889 C47.7787457,14.1222199 48.4776488,13.8888889 49.2991207,13.8888889 C50.2000899,13.8888889 50.9155547,14.1449048 51.4455366,14.6569444 C51.9755185,15.168984 52.2802535,15.6972195 52.3597508,16.2416667 C52.3730003,16.3064818 52.3531263,16.3615738 52.3001281,16.4069444 C52.2471299,16.452315 52.1808832,16.475 52.1013859,16.475 L51.6045304,16.475 C51.4720349,16.475 51.3925388,16.397223 51.3660397,16.2416667 C51.2865424,15.8268498 51.0546788,15.4703719 50.670442,15.1722222 C50.2862051,14.8740726 49.8224779,14.725 49.2792465,14.725 C48.7757637,14.725 48.3219735,14.8773133 47.9178623,15.1819444 C47.5137512,15.4865756 47.3116986,15.8592571 47.3116986,16.3 C47.3116986,16.7407429 47.4872525,17.106943 47.8383655,17.3986111 C48.1894784,17.6902792 48.6200823,17.9300917 49.1301898,18.1180556 C49.6402974,18.3060195 50.147085,18.5101841 50.6505677,18.7305556 C51.1540505,18.950927 51.581342,19.2814793 51.932455,19.7222222 C52.283568,20.1629652 52.4591219,20.7074042 52.4591219,21.3555556 C52.4591219,22.0814851 52.1444498,22.7037011 51.5150964,23.2222222 C50.8857429,23.7407433 50.140467,24 49.2792465,24 C48.29878,24 47.5203808,23.7310212 46.9440255,23.1930556 C46.3676702,22.6550899 46.0529982,22.0296332 46,21.3166667 C46,21.1611103 46.0794961,21.0833333 46.2384907,21.0833333 L46.6955977,21.0833333 C46.8545923,21.0833333 46.9473377,21.1611103 46.9738368,21.3166667 Z M64.4541177,18.05 L62.1685823,23.5722222 C62.1155841,23.7277786 62.0228387,23.8055556 61.8903432,23.8055556 L60.5587704,23.8055556 C60.4262749,23.8055556 60.3335295,23.7277786 60.2805313,23.5722222 L57.9949958,18.05 C57.902249,17.8166655 57.8558763,17.5833345 57.8558763,17.35 L57.8558763,14.3166667 C57.8558763,14.1611103 57.9419971,14.0833333 58.1142412,14.0833333 L58.551474,14.0833333 C58.7369677,14.0833333 58.8297131,14.1611103 58.8297131,14.3166667 L58.8297131,17.6805556 L61.0357517,22.9888889 L61.4133619,22.9888889 L63.6194004,17.6805556 L63.6194004,14.3166667 C63.6194004,14.1611103 63.7055212,14.0833333 63.8777653,14.0833333 L64.3149982,14.0833333 C64.5004918,14.0833333 64.5932373,14.1611103 64.5932373,14.3166667 L64.5932373,17.35 C64.5932373,17.5833345 64.5468645,17.8166655 64.4541177,18.05 Z M76.4292393,23.8055556 L69.8707464,23.8055556 C69.7250014,23.8055556 69.6521299,23.73426 69.6521299,23.5916667 L69.6521299,23.1638889 C69.6521299,23.0342586 69.7250014,22.9694444 69.8707464,22.9694444 L72.8320053,22.9694444 L72.8320053,14.9194444 L69.8707464,14.9194444 C69.7250014,14.9194444 69.6521299,14.8481489 69.6521299,14.7055556 L69.6521299,14.2777778 C69.6521299,14.1481475 69.7250014,14.0833333 69.8707464,14.0833333 L73.5673515,14.0833333 C73.6335992,14.0833333 73.6932213,14.109259 73.7462195,14.1611111 C73.7992177,14.2129632 73.8257164,14.2648146 73.8257164,14.3166667 L73.8257164,22.9694444 L76.4292393,22.9694444 C76.5749844,22.9694444 76.6478558,23.0342586 76.6478558,23.1638889 L76.6478558,23.5916667 C76.6478558,23.73426 76.5749844,23.8055556 76.4292393,23.8055556 Z M73.9250875,11.0888889 L73.9250875,11.9444444 C73.9250875,12.1129638 73.8389667,12.1972222 73.6667226,12.1972222 L72.8717538,12.1972222 C72.6995097,12.1972222 72.6133889,12.1129638 72.6133889,11.9444444 L72.6133889,11.0888889 C72.6133889,10.9203695 72.6995097,10.8361111 72.8717538,10.8361111 L73.6667226,10.8361111 C73.8389667,10.8361111 73.9250875,10.9203695 73.9250875,11.0888889 Z M87.8081343,10.9722222 C87.5431434,10.868518 87.225159,10.8166667 86.8541717,10.8166667 C86.2844412,10.8166667 85.830651,10.9981463 85.4927876,11.3611111 C85.1549241,11.7240759 84.9859949,12.1972193 84.9859949,12.7805556 L84.9859949,14.0833333 L88.1857445,14.0833333 C88.3314896,14.0833333 88.404361,14.1481475 88.404361,14.2777778 L88.404361,14.7055556 C88.404361,14.8481489 88.3314896,14.9194444 88.1857445,14.9194444 L84.9859949,14.9194444 L84.9859949,23.5722222 C84.9859949,23.7277786 84.8932495,23.8055556 84.7077558,23.8055556 L84.270523,23.8055556 C84.0982789,23.8055556 84.0121581,23.7277786 84.0121581,23.5722222 L84.0121581,14.9194444 L82.2234782,14.9194444 C82.0777332,14.9194444 82.0048618,14.8481489 82.0048618,14.7055556 L82.0048618,14.2777778 C82.0048618,14.1481475 82.0777332,14.0833333 82.2234782,14.0833333 L84.0121581,14.0833333 L84.0121581,12.8388889 C84.0121581,12.0092551 84.2771451,11.3287064 84.8071269,10.7972222 C85.3371088,10.2657381 86.0194503,10 86.8541717,10 C87.3974031,10 87.887629,10.0842584 88.3248641,10.2527778 C88.3778623,10.2657408 88.4109856,10.3046293 88.4242352,10.3694444 C88.4374847,10.4342596 88.4242354,10.4925923 88.3844867,10.5444444 L88.1261219,10.8944444 C88.0466246,10.9981487 87.9406298,11.0240743 87.8081343,10.9722222 Z M100.995583,21.6083333 C100.955835,22.1527805 100.6511,22.6874974 100.081369,23.2125 C99.5116388,23.7375026 98.8690454,24 98.1535698,24 C97.2261015,24 96.4775134,23.7148177 95.9077828,23.1444444 C95.3380523,22.5740712 95.0531913,21.8935225 95.0531913,21.1027778 L95.0531913,14.9194444 L93.7216185,14.9194444 C93.5758735,14.9194444 93.5030021,14.8546303 93.5030021,14.725 L93.5030021,14.2972222 C93.5030021,14.1546289 93.5758735,14.0833333 93.7216185,14.0833333 L95.0531913,14.0833333 L95.0531913,11.5944444 C95.0531913,11.4388881 95.1393121,11.3611111 95.3115562,11.3611111 L95.7289149,11.3611111 C95.9144085,11.3611111 96.007154,11.4388881 96.007154,11.5944444 L96.007154,14.0833333 L100.617973,14.0833333 C100.763718,14.0833333 100.83659,14.1546289 100.83659,14.2972222 L100.83659,14.725 C100.83659,14.8546303 100.763718,14.9194444 100.617973,14.9194444 L96.007154,14.9194444 L96.007154,21.1416667 C96.007154,21.6212987 96.2058942,22.0749979 96.6033806,22.5027778 C97.000867,22.9305577 97.5109669,23.1444444 98.1336956,23.1444444 C98.6504279,23.1444444 99.0909688,22.9726869 99.4553313,22.6291667 C99.8196939,22.2856464 100.034996,21.9453721 100.101244,21.6083333 C100.127743,21.452777 100.213863,21.375 100.359608,21.375 L100.757093,21.375 C100.83659,21.375 100.899524,21.397685 100.945898,21.4430556 C100.992271,21.4884262 101.008833,21.5435182 100.995583,21.6083333 Z" id="svift" fill="#71609B"></path>
        <g id="Group-2-Copy" transform="translate(3.000000, 3.000000)">
            <g id="Oval-Copy-2">
                <use fill="black" fill-opacity="1" filter="url(#filter-2)" xlink:href="#path-1"></use>
                <use fill="#FFFFFF" fill-rule="evenodd" xlink:href="#path-1"></use>
            </g>
            <g id="Group-Copy" transform="translate(9.000000, 7.000000)">
                <path d="M0.274493551,3.97630229 L0.274493551,11.6619089 C0.274493551,13.8710479 2.06535455,15.6619089 4.27449355,15.6619089 C4.94140391,15.6619089 5.59773058,15.4951599 6.18376518,15.1768316 L7.06819326,14.6964189 C9.00943149,13.6419573 9.72830598,11.2134628 8.67384437,9.27222458 C8.30497145,8.59313848 7.74727937,8.0354464 7.06819326,7.66657347 L0.274493551,3.97630229 Z" id="Path-2-Copy-3" fill="url(#linearGradient-3)" transform="translate(5.131356, 11.181187) rotate(270.000000) translate(-5.131356, -11.181187) "></path>
                <path d="M1.27449355,-2.02369771 L1.27449355,5.66190889 C1.27449355,7.87104789 3.06535455,9.66190889 5.27449355,9.66190889 C5.94140391,9.66190889 6.59773058,9.49515988 7.18376518,9.17683163 L8.06819326,8.69641895 C10.0094315,7.64195735 10.728306,5.21346281 9.67384437,3.27222458 C9.30497145,2.59313848 8.74727937,2.0354464 8.06819326,1.66657347 L1.27449355,-2.02369771 Z" id="Path-2-Copy-2" fill="url(#linearGradient-4)" transform="translate(6.131356, 5.181187) rotate(90.000000) translate(-6.131356, -5.181187) "></path>
            </g>
        </g>
    </g>
</svg>