<?xml version="1.0" encoding="UTF-8"?>
<svg width="101px" height="30px" viewBox="0 0 101 30" version="1.1" xmlns="http://www.w3.org/2000/svg" xmlns:xlink="http://www.w3.org/1999/xlink">
    <!-- Generator: Sketch 49.3 (51167) - http://www.bohemiancoding.com/sketch -->
    <title>logo_wordmark copy 2</title>
    <desc>Created with Sketch.</desc>
    <defs>
        <linearGradient x1="7.93677715%" y1="-12.2993249%" x2="122.824009%" y2="75.5368125%" id="linearGradient-1">
            <stop stop-color="#71609B" offset="0%"></stop>
            <stop stop-color="#75FABF" offset="100%"></stop>
        </linearGradient>
        <linearGradient x1="132.418539%" y1="78.4402366%" x2="59.99532%" y2="42.6162552%" id="linearGradient-2">
            <stop stop-color="#71609B" offset="0%"></stop>
            <stop stop-color="#75FABF" offset="100%"></stop>
        </linearGradient>
    </defs>
    <g id="logo_wordmark-copy-2" stroke="none" stroke-width="1" fill="none" fill-rule="evenodd">
        <path d="M44.0127272,18.44 C44.0660608,18.9466692 44.3093917,19.3899981 44.7427272,19.77 C45.1760627,20.1500019 45.7060574,20.34 46.3327272,20.34 C46.959397,20.34 47.4827251,20.1600018 47.9027272,19.8 C48.3227293,19.4399982 48.5327272,18.9866694 48.5327272,18.44 C48.5327272,17.9599976 48.3560623,17.5600016 48.0027272,17.24 C47.6493921,16.9199984 47.2193964,16.6633343 46.7127272,16.47 C46.206058,16.2766657 45.6993964,16.0700011 45.1927272,15.85 C44.686058,15.6299989 44.2560623,15.3166687 43.9027272,14.91 C43.5493921,14.5033313 43.3727272,14.000003 43.3727272,13.4 C43.3727272,12.6266628 43.6627243,12.0000024 44.2427272,11.52 C44.8227301,11.0399976 45.5260564,10.8 46.3527272,10.8 C47.2593984,10.8 47.9793912,11.0633307 48.5127272,11.59 C49.0460632,12.1166693 49.3527268,12.6599972 49.4327272,13.22 C49.4460606,13.286667 49.4260608,13.3433331 49.3727272,13.39 C49.3193936,13.4366669 49.2527276,13.46 49.1727272,13.46 L48.6727272,13.46 C48.5393932,13.46 48.459394,13.3800008 48.4327272,13.22 C48.3527268,12.7933312 48.1193958,12.4266682 47.7327272,12.12 C47.3460586,11.8133318 46.8793966,11.66 46.3327272,11.66 C45.826058,11.66 45.3693959,11.8166651 44.9627272,12.13 C44.5560585,12.4433349 44.3527272,12.8266644 44.3527272,13.28 C44.3527272,13.7333356 44.5293921,14.1099985 44.8827272,14.41 C45.2360623,14.7100015 45.6693913,14.9566657 46.1827272,15.15 C46.6960631,15.3433343 47.206058,15.5533322 47.7127272,15.78 C48.2193964,16.0066678 48.6493921,16.3466644 49.0027272,16.8 C49.3560623,17.2533356 49.5327272,17.81333 49.5327272,18.48 C49.5327272,19.2266704 49.2160637,19.866664 48.5827272,20.4 C47.9493907,20.933336 47.1993982,21.2 46.3327272,21.2 C45.3460556,21.2 44.5627301,20.9233361 43.9827272,20.37 C43.4027243,19.8166639 43.0860608,19.173337 43.0327272,18.44 C43.0327272,18.2799992 43.1127264,18.2 43.2727272,18.2 L43.7327272,18.2 C43.892728,18.2 43.9860604,18.2799992 44.0127272,18.44 Z M61.6036363,15.08 L59.3036363,20.76 C59.2503027,20.9200008 59.1569703,21 59.0236363,21 L57.6836363,21 C57.5503023,21 57.4569699,20.9200008 57.4036363,20.76 L55.1036363,15.08 C55.0103025,14.8399988 54.9636363,14.6000012 54.9636363,14.36 L54.9636363,11.24 C54.9636363,11.0799992 55.0503021,11 55.2236363,11 L55.6636363,11 C55.8503039,11 55.9436363,11.0799992 55.9436363,11.24 L55.9436363,14.7 L58.1636363,20.16 L58.5436363,20.16 L60.7636363,14.7 L60.7636363,11.24 C60.7636363,11.0799992 60.8503021,11 61.0236363,11 L61.4636363,11 C61.6503039,11 61.7436363,11.0799992 61.7436363,11.24 L61.7436363,14.36 C61.7436363,14.6000012 61.6969701,14.8399988 61.6036363,15.08 Z M73.6545454,21 L67.0545454,21 C66.907878,21 66.8345454,20.9266674 66.8345454,20.78 L66.8345454,20.34 C66.8345454,20.206666 66.907878,20.14 67.0545454,20.14 L70.0345454,20.14 L70.0345454,11.86 L67.0545454,11.86 C66.907878,11.86 66.8345454,11.7866674 66.8345454,11.64 L66.8345454,11.2 C66.8345454,11.066666 66.907878,11 67.0545454,11 L70.7745454,11 C70.8412124,11 70.9012118,11.0266664 70.9545454,11.08 C71.007879,11.1333336 71.0345454,11.1866664 71.0345454,11.24 L71.0345454,20.14 L73.6545454,20.14 C73.8012128,20.14 73.8745454,20.206666 73.8745454,20.34 L73.8745454,20.78 C73.8745454,20.9266674 73.8012128,21 73.6545454,21 Z M71.1345454,7.92 L71.1345454,8.8 C71.1345454,8.9733342 71.0478796,9.06 70.8745454,9.06 L70.0745454,9.06 C69.9012112,9.06 69.8145454,8.9733342 69.8145454,8.8 L69.8145454,7.92 C69.8145454,7.7466658 69.9012112,7.66 70.0745454,7.66 L70.8745454,7.66 C71.0478796,7.66 71.1345454,7.7466658 71.1345454,7.92 Z M85.1054546,7.8 C84.8387866,7.6933328 84.5187898,7.64 84.1454546,7.64 C83.5721184,7.64 83.1154563,7.8266648 82.7754546,8.2 C82.4354529,8.5733352 82.2654546,9.059997 82.2654546,9.66 L82.2654546,11 L85.4854546,11 C85.632122,11 85.7054546,11.066666 85.7054546,11.2 L85.7054546,11.64 C85.7054546,11.7866674 85.632122,11.86 85.4854546,11.86 L82.2654546,11.86 L82.2654546,20.76 C82.2654546,20.9200008 82.1721222,21 81.9854546,21 L81.5454546,21 C81.3721204,21 81.2854546,20.9200008 81.2854546,20.76 L81.2854546,11.86 L79.4854546,11.86 C79.3387872,11.86 79.2654546,11.7866674 79.2654546,11.64 L79.2654546,11.2 C79.2654546,11.066666 79.3387872,11 79.4854546,11 L81.2854546,11 L81.2854546,9.72 C81.2854546,8.8666624 81.5521186,8.1666694 82.0854546,7.62 C82.6187906,7.0733306 83.3054504,6.8 84.1454546,6.8 C84.692124,6.8 85.1854524,6.8866658 85.6254546,7.06 C85.6787882,7.0733334 85.7121212,7.113333 85.7254546,7.18 C85.738788,7.246667 85.7254548,7.3066664 85.6854546,7.36 L85.4254546,7.72 C85.3454542,7.8266672 85.2387886,7.8533336 85.1054546,7.8 Z M98.3763637,18.74 C98.3363635,19.3000028 98.0296999,19.8499973 97.4563637,20.39 C96.8830275,20.9300027 96.2363673,21.2 95.5163637,21.2 C94.5830257,21.2 93.8296999,20.9066696 93.2563637,20.32 C92.6830275,19.7333304 92.3963637,19.0333374 92.3963637,18.22 L92.3963637,11.86 L91.0563637,11.86 C90.9096963,11.86 90.8363637,11.793334 90.8363637,11.66 L90.8363637,11.22 C90.8363637,11.0733326 90.9096963,11 91.0563637,11 L92.3963637,11 L92.3963637,8.44 C92.3963637,8.2799992 92.4830295,8.2 92.6563637,8.2 L93.0763637,8.2 C93.2630313,8.2 93.3563637,8.2799992 93.3563637,8.44 L93.3563637,11 L97.9963637,11 C98.1430311,11 98.2163637,11.0733326 98.2163637,11.22 L98.2163637,11.66 C98.2163637,11.793334 98.1430311,11.86 97.9963637,11.86 L93.3563637,11.86 L93.3563637,18.26 C93.3563637,18.7533358 93.5563617,19.2199978 93.9563637,19.66 C94.3563657,20.1000022 94.8696939,20.32 95.4963637,20.32 C96.0163663,20.32 96.4596952,20.1433351 96.8263637,19.79 C97.1930322,19.4366649 97.4096967,19.0866684 97.4763637,18.74 C97.5030305,18.5799992 97.5896963,18.5 97.7363637,18.5 L98.1363637,18.5 C98.2163641,18.5 98.2796968,18.5233331 98.3263637,18.57 C98.3730306,18.6166669 98.3896971,18.673333 98.3763637,18.74 Z" id="svift" fill="#FFFFFF"></path>
        <g id="Group-2-Copy">
            <circle id="Oval-Copy-2" fill="#FFFFFF" cx="15" cy="15" r="15"></circle>
            <g id="Group-Copy" transform="translate(9.000000, 7.000000)">
                <path d="M0.274493551,3.97630229 L0.274493551,11.6619089 C0.274493551,13.8710479 2.06535455,15.6619089 4.27449355,15.6619089 C4.94140391,15.6619089 5.59773058,15.4951599 6.18376518,15.1768316 L7.06819326,14.6964189 C9.00943149,13.6419573 9.72830598,11.2134628 8.67384437,9.27222458 C8.30497145,8.59313848 7.74727937,8.0354464 7.06819326,7.66657347 L0.274493551,3.97630229 Z" id="Path-2-Copy-3" fill="url(#linearGradient-1)" transform="translate(5.131356, 11.181187) rotate(270.000000) translate(-5.131356, -11.181187) "></path>
                <path d="M1.27449355,-2.02369771 L1.27449355,5.66190889 C1.27449355,7.87104789 3.06535455,9.66190889 5.27449355,9.66190889 C5.94140391,9.66190889 6.59773058,9.49515988 7.18376518,9.17683163 L8.06819326,8.69641895 C10.0094315,7.64195735 10.728306,5.21346281 9.67384437,3.27222458 C9.30497145,2.59313848 8.74727937,2.0354464 8.06819326,1.66657347 L1.27449355,-2.02369771 Z" id="Path-2-Copy-2" fill="url(#linearGradient-2)" transform="translate(6.131356, 5.181187) rotate(90.000000) translate(-6.131356, -5.181187) "></path>
            </g>
        </g>
    </g>
</svg>