<?xml version="1.0" encoding="UTF-8"?>
<svg width="24px" height="24px" viewBox="0 0 24 24" version="1.1" xmlns="http://www.w3.org/2000/svg" xmlns:xlink="http://www.w3.org/1999/xlink">
    <!-- Generator: Sketch 47 (45396) - http://www.bohemiancoding.com/sketch -->
    <title>square</title>
    <desc>Created with Sketch.</desc>
    <defs></defs>
    <g id="Page-1" stroke="none" stroke-width="1" fill="none" fill-rule="evenodd">
        <g id="square" stroke="#000000">
            <g>
                <g transform="translate(12.000000, 12.000000) rotate(90.000000) translate(-12.000000, -12.000000) ">
                    <polygon id="Stroke-1" stroke-opacity="0.00784313771" stroke-width="1.33333335e-11" points="0 0 23.9999985 0 23.9999985 23.9999985 0 23.9999985"></polygon>
                    <g id="Group-4" transform="translate(2.000000, 2.000000)" stroke-width="2" stroke-linecap="round" stroke-linejoin="round">
                        <path d="M1.81818182,0 L18.1818182,0 C19.3939399,0 20,0.833333125 20,2.5 L20,17.5 C20,19.1666674 19.3939399,20 18.1818182,20 L1.81818182,20 C0.606060564,20 0,19.1666674 0,17.5 L0,2.5 C0,0.833333125 0.606060564,0 1.81818182,0 Z" id="Stroke-2"></path>
                    </g>
                </g>
                <g id="Group-3" transform="translate(2.000000, 4.000000)" stroke-width="2">
                    <path d="M0,14.14408 C5.88338295,11.3642035 6.34683645,7.62110007 10,9.51373203 C13.6531635,11.406364 16.8944143,14.6164321 20,12.7084838" id="Path-2"></path>
                    <circle id="Oval-Copy-2" cx="15" cy="3" r="2"></circle>
                </g>
            </g>
        </g>
    </g>
</svg>